{"title":"Charade 1963 DVDRip sub Cary Grant Audrey Hepburn","uid":6522432,"size":1420087165,"categoryP":"video","categoryS":"movies","magnet":"?xt=urn:btih:d098d2ed4f3667551cd711ad4111b2e694ab32a7&amp;dn=Charade+1963+DVDRip+sub+Cary+Grant+Audrey+Hepburn&amp;tr=udp%3A%2F%2Ftracker.openbittorrent.com%3A80&amp;tr=udp%3A%2F%2Fopen.demonii.com%3A1337&amp;tr=udp%3A%2F%2Ftracker.coppersurfer.tk%3A6969&amp;tr=udp%3A%2F%2Fexodus.desync.com%3A6969","seeders":3,"leechers":0,"uploader":"CrowTR","files":1,"time":1309996871,"description":" &lt;a href=&quot;http://www.imdb.com/title/tt0056923/&quot; rel=&quot;nofollow&quot; target=&quot;_NEW&quot;&gt;http://www.imdb.com/title/tt0056923/&lt;/a&gt;\n\nFormat                           : MPEG-4\nFormat profile                   : Base Media / Version 2\nCodec ID                         : mp42\nFile size                        : 1.32 GiB\nDuration                         : 1h 53mn\nOverall bit rate                 : 1 667 Kbps\n\nVideo\nID                               : 1\nFormat                           : MPEG-4 Visual\nFormat profile                   : AdvancedSimple@L5\nFormat settings, BVOP            : Yes\nFormat settings, QPel            : No\nFormat settings, GMC             : No warppoints\nFormat settings, Matrix          : Default (H.263)\nCodec ID                         : 20\nDuration                         : 1h 53mn\nBit rate mode                    : Variable\nBit rate                         : 1 576 Kbps\nMaximum bit rate                 : 4 639 Kbps\nWidth                            : 704 pixels\nHeight                           : 384 pixels\nDisplay aspect ratio             : 16:9\nFrame rate mode                  : Constant\nFrame rate                       : 23.976 fps\nResolution                       : 24 bits\nColorimetry                      : 4:2:0\nScan type                        : Progressive\nBits/(Pixel*Frame)               : 0.243\nStream size                      : 1.25 GiB (95%)\nWriting library                  : em4v 4.1.6.5\nLanguage                         : English\n\nAudio\nID                               : 2\nFormat                           : AAC\nFormat/Info                      : Advanced Audio Codec\nFormat version                   : Version 4\nFormat profile                   : LC\nFormat settings, SBR             : No\nCodec ID                         : 40\nDuration                         : 1h 53mn\nBit rate mode                    : Variable\nBit rate                         : 80.7 Kbps\nMaximum bit rate                 : 115 Kbps\nChannel(s)                       : 2 channels\nChannel positions                : L R\nSampling rate                    : 44.1 KHz\nResolution                       : 16 bits\nStream size                      : 65.5 MiB (5%)\nLanguage                         : English\n\nText\nID                               : 3\nFormat                           : VobSub\nCodec ID                         : subp\nCodec ID/Info                    : The same subtitle format used on DVDs\nDuration                         : 1h 53mn\nBit rate mode                    : Variable\nBit rate                         : 5 135 bps\nStream size                      : 4.16 MiB (0%)\nTitle                            : English\nLanguage                         : English","torrent":{"xt":"urn:btih:d098d2ed4f3667551cd711ad4111b2e694ab32a7","amp;dn":"Charade+1963+DVDRip+sub+Cary+Grant+Audrey+Hepburn","amp;tr":["udp%3A%2F%2Ftracker.openbittorrent.com%3A80","udp%3A%2F%2Fopen.demonii.com%3A1337","udp%3A%2F%2Ftracker.coppersurfer.tk%3A6969","udp%3A%2F%2Fexodus.desync.com%3A6969"],"infoHash":"d098d2ed4f3667551cd711ad4111b2e694ab32a7","infoHashBuffer":{"type":"Buffer","data":[208,152,210,237,79,54,103,85,28,215,17,173,65,17,178,230,148,171,50,167]},"announce":[],"urlList":[]}}